# xmcd
#
# Track frame offsets:
#	150
#	14147
#	32720
#	42115
#	58552
#	90485
#	102017
#	117177
#	129410
#	143335
#	156365
#	175250
#
# Disc length: 2591 seconds
#
# Revision: 14
# Processed by: cddbd v1.5.2PL0 Copyright (c) Steve Scherf et al.
# Submitted via: audiograbber 1.83.01
#
DISCID=930a1d0c
DTITLE=Alan Jackson - Under The Influence
DYEAR=1999
DGENRE=Country
TTITLE0=Pop A Top
TTITLE1=Farewell Party
TTITLE2=Kiss An Angel Good Mornin'
TTITLE3=Right In The Palm Of Your Hand
TTITLE4=The Blues Man (A Tribute To Hank Williams Jr)
TTITLE5=Revenooer Man
TTITLE6=My Own Kind Of Hat
TTITLE7=She Just Started Liking Cheatin' Songs
TTITLE8=The Way I Am
TTITLE9=It Must Be Love
TTITLE10=Once You've Had The Best
TTITLE11=Margaritaville (With Jimmy Buffett)
EXTD=
EXTT0=
EXTT1=
EXTT2=
EXTT3=
EXTT4=
EXTT5=
EXTT6=
EXTT7=
EXTT8=
EXTT9=
EXTT10=
EXTT11=
PLAYORDER=
